<svg width="64" height="64" viewBox="0 0 64 64" fill="none" xmlns="http://www.w3.org/2000/svg">
  <rect x="2" y="2" width="60" height="60" rx="14" fill="#0E1118" stroke="#333333" stroke-width="2"/>
  <path d="M18 22C18 18.6863 20.6863 16 24 16H40C43.3137 16 46 18.6863 46 22V42C46 45.3137 43.3137 48 40 48H24C20.6863 48 18 45.3137 18 42V22Z" fill="#111827"/>
  <path d="M24 22H40V42H24V22Z" fill="#0F172A"/>
  <path d="M24 28C24 25.7909 25.7909 24 28 24H36C38.2091 24 40 25.7909 40 28V36C40 38.2091 38.2091 40 36 40H28C25.7909 40 24 38.2091 24 36V28Z" fill="#0070F3"/>
  <path d="M27.5 34.6C27.5 33.5 28.4 32.6 29.5 32.6H34.5C35.6 32.6 36.5 33.5 36.5 34.6V35.5H27.5V34.6Z" fill="#E2E2E2"/>
  <circle cx="30.2" cy="29.8" r="1.9" fill="#E2E2E2"/>
  <circle cx="33.8" cy="29.8" r="1.9" fill="#E2E2E2"/>
</svg>
